<svg id="_18265738341599780998" data-name="18265738341599780998" xmlns="http://www.w3.org/2000/svg" xmlns:xlink="http://www.w3.org/1999/xlink" width="31.037" height="31.036" viewBox="0 0 31.037 31.036">
  <defs>
    <linearGradient id="linear-gradient" x1="0.074" y1="0.926" x2="1.154" y2="-0.154" gradientUnits="objectBoundingBox">
      <stop offset="0.001" stop-color="#fbe18a"/>
      <stop offset="0.209" stop-color="#fcbb45"/>
      <stop offset="0.377" stop-color="#f75274"/>
      <stop offset="0.524" stop-color="#d53692"/>
      <stop offset="0.739" stop-color="#8f39ce"/>
      <stop offset="1" stop-color="#5b4fe9"/>
    </linearGradient>
  </defs>
  <ellipse id="Ellipse_20" data-name="Ellipse 20" cx="15.518" cy="15.518" rx="15.518" ry="15.518" transform="translate(0 0)" fill="url(#linear-gradient)"/>
  <g id="Group_302" data-name="Group 302" transform="translate(5.286 5.236)">
    <ellipse id="Ellipse_21" data-name="Ellipse 21" cx="1.206" cy="1.206" rx="1.206" ry="1.206" transform="translate(14.52 3.672)" fill="#fff"/>
    <path id="Path_394" data-name="Path 394" d="M180.844,173.316a5.064,5.064,0,1,0,5.064,5.064A5.07,5.07,0,0,0,180.844,173.316Zm0,8.308a3.244,3.244,0,1,1,3.244-3.244A3.248,3.248,0,0,1,180.844,181.624Z" transform="translate(-170.478 -168.098)" fill="#fff"/>
    <g id="Group_301" data-name="Group 301">
      <path id="Path_395" data-name="Path 395" d="M103.928,109.013h-8.21a6.184,6.184,0,0,1-6.177-6.177v-8.21a6.184,6.184,0,0,1,6.177-6.177h8.21a6.184,6.184,0,0,1,6.177,6.177v8.21A6.184,6.184,0,0,1,103.928,109.013Zm-8.21-18.629a4.247,4.247,0,0,0-4.242,4.242v8.21a4.247,4.247,0,0,0,4.242,4.242h8.21a4.247,4.247,0,0,0,4.242-4.242v-8.21a4.247,4.247,0,0,0-4.242-4.242h-8.21Z" transform="translate(-89.541 -88.449)" fill="#fff"/>
    </g>
  </g>
</svg>
