<svg id="_12479281421559031673" data-name="12479281421559031673" xmlns="http://www.w3.org/2000/svg" width="31.037" height="31.036" viewBox="0 0 31.037 31.036">
  <circle id="Ellipse_19" data-name="Ellipse 19" cx="15.518" cy="15.518" r="15.518" transform="translate(0)" fill="#007ab9"/>
  <g id="Group_300" data-name="Group 300" transform="translate(7.488 6.631)">
    <path id="Path_393" data-name="Path 393" d="M44.371,34.105v6.4H40.661V34.534c0-1.5-.536-2.522-1.879-2.522a2.029,2.029,0,0,0-1.9,1.356,2.539,2.539,0,0,0-.123.9V40.5h-3.71s.05-10.11,0-11.156h3.71v1.581c-.007.012-.018.025-.025.037h.025v-.037A3.683,3.683,0,0,1,40.1,29.085c2.44,0,4.27,1.594,4.27,5.021Zm-15.2-10.136a1.933,1.933,0,1,0-.049,3.855h.024a1.934,1.934,0,1,0,.025-3.855ZM27.288,40.5H31V29.347H27.288Z" transform="translate(-27.068 -23.969)" fill="#f1f2f2"/>
  </g>
</svg>
